<svg xmlns="http://www.w3.org/2000/svg" viewBox="0 0 306 529.15"><defs><style>.cls-1{fill:#4db7e7;}.cls-2{fill:#7cceff;}.cls-3{fill:#e5f5ff;}.cls-4{opacity:0.4;}.cls-4,.cls-6{isolation:isolate;}.cls-5{fill:#fff;}.cls-6{opacity:0.45;}.cls-7{fill:#2987b3;}</style></defs><g id="Layer_2" data-name="Layer 2"><g id="Layer_1-2" data-name="Layer 1"><rect class="cls-1" width="306" height="529" rx="25"/><path class="cls-2" d="M234.59,264.39a.77.77,0,0,1,1,.57c.42,4.85,1.45,14.2,1.45,14.2s-2-9.28-3.21-13.89C233.83,265.27,233.71,264.55,234.59,264.39Z"/><path class="cls-2" d="M204,285.3a.76.76,0,0,1,.93-.66c4.58,1.67,13.49,4.69,13.49,4.69s-9.27-2.08-13.94-3A.78.78,0,0,1,204,285.3Z"/><path class="cls-2" d="M254.68,267.56a.77.77,0,0,1,.46,1.05c-2.57,4.14-7.34,12.26-7.34,12.26s3.92-8.66,5.74-13.05A.79.79,0,0,1,254.68,267.56Z"/><path class="cls-2" d="M208.9,314.82a.77.77,0,0,1,.27-1.12c4.56-1.71,13.29-5.23,13.29-5.23s-8.39,4.47-12.51,6.84A.79.79,0,0,1,208.9,314.82Z"/><path class="cls-2" d="M236.06,331.08c-.89-.12-.78-.85-.78-.85,1.09-4.74,3-14,3-14s-.91,9.47-1.21,14.21A.79.79,0,0,1,236.06,331.08Z"/><path class="cls-2" d="M268.26,309.9c-.51.87-1.15.55-1.15.55-4-2.49-11.8-7.09-11.8-7.09s8.49,3.67,12.82,5.35C268.13,308.71,268.76,309,268.26,309.9Z"/><path class="cls-3" d="M279.1,321.63c-.39.67-.88.42-.88.42-3.07-1.91-9.1-5.46-9.1-5.46s6.54,2.83,9.88,4.12C279,320.71,279.49,321,279.1,321.63Z"/><path class="cls-2" d="M267.82,284c.36,1.14-.38,1.45-.38,1.45-5,1.54-14.65,4.81-14.65,4.81s9.33-4.6,13.92-7.1C266.71,283.19,267.45,282.88,267.82,284Z"/><path class="cls-2" d="M250.85,318.45c-.89.39-1.2-.19-1.2-.19-1.66-3.93-5.1-11.46-5.1-11.46s4.49,7.18,6.89,10.69C251.44,317.49,251.75,318.06,250.85,318.45Z"/><path class="cls-3" d="M258.14,336c-1,.33-1.32-.27-1.32-.27-1.42-4.1-4.43-11.95-4.43-11.95s4.22,7.57,6.51,11.29C258.9,335,259.18,335.63,258.14,336Z"/><path class="cls-2" d="M252.89,253c1.63.38,1.31,1.65,1.31,1.65-2.76,8.18-7.7,24.13-7.7,24.13s3.16-16.56,4.45-24.89C251,253.9,251.26,252.63,252.89,253Z"/><path class="cls-2" d="M275.58,266.47c1.17,1,.26,1.91.26,1.91-6.55,5.25-18.95,15.66-18.95,15.66s11.2-11.73,16.59-17.76A1.5,1.5,0,0,1,275.58,266.47Z"/><path class="cls-2" d="M203.52,325.68a1.56,1.56,0,0,1,.22-2.31c8.38-4.58,24.36-13.82,24.36-13.82s-15,11.06-22.38,16.84A1.55,1.55,0,0,1,203.52,325.68Z"/><path class="cls-2" d="M194.66,296.71c.12-1.94,1.66-1.84,1.66-1.84,10.14,1.46,29.8,3.81,29.8,3.81s-20-.19-30,.06C196.08,298.74,194.53,298.64,194.66,296.71Z"/><path class="cls-2" d="M204,274.43a1.45,1.45,0,0,1,2-.77c7.25,5.09,21.51,14.58,21.51,14.58s-15.38-8-23.21-11.69A1.44,1.44,0,0,1,204,274.43Z"/><path class="cls-2" d="M220.35,255.41a1.46,1.46,0,0,1,2.12.42c3.42,8.2,10.42,23.89,10.42,23.89s-8.77-15-13.41-22.34A1.45,1.45,0,0,1,220.35,255.41Z"/><path class="cls-2" d="M283.62,287.7c.3,1.51-.9,1.76-.9,1.76-8.08,1-23.64,3.23-23.64,3.23s15.39-4,23-6.25C282.1,286.44,283.31,286.2,283.62,287.7Z"/><path class="cls-2" d="M285.15,309.61c-.38,1.57-1.64,1.26-1.64,1.26-8.13-2.71-24-7.57-24-7.57s16.45,3.13,24.73,4.42A1.4,1.4,0,0,1,285.15,309.61Z"/><path class="cls-2" d="M270.89,333.33a1.36,1.36,0,0,1-2,.17c-5.2-6.5-15.55-18.8-15.55-18.8s11.77,11.22,17.84,16.64A1.35,1.35,0,0,1,270.89,333.33Z"/><path class="cls-3" d="M241.71,322.11c-.93.05-1-.69-1-.69.1-4.93.06-14.47.06-14.47s1.1,9.58,1.8,14.35C242.59,321.3,242.64,322.05,241.71,322.11Z"/><path class="cls-2" d="M250.47,343.71c-1.61.29-1.84-1-1.84-1-.88-8.59-3-25.16-3-25.16s3.93,16.43,6.17,24.57C251.84,342.12,252.08,343.41,250.47,343.71Z"/><path class="cls-2" d="M225.21,344.66c-1.79-.67-1.26-2.1-1.26-2.1,4.26-9.14,12.07-27,12.07-27s-5.88,18.82-8.49,28.33A1.65,1.65,0,0,1,225.21,344.66Z"/><path class="cls-3" d="M215.87,306.92c-.38-1.24.61-1.54.61-1.54,6.69-1.47,19.54-4.63,19.54-4.63s-12.57,4.6-18.78,7.11C217.24,307.86,216.25,308.16,215.87,306.92Z"/><path class="cls-3" d="M195.87,309.8c-.17-.84.5-1,.5-1,4.5-.53,13.16-1.78,13.16-1.78s-8.57,2.21-12.82,3.46C196.71,310.5,196,310.64,195.87,309.8Z"/><path class="cls-2" d="M216,292.48c.27-1.22,1.25-1,1.25-1,6.31,1.92,18.62,5.34,18.62,5.34s-12.75-2.08-19.15-2.9C216.73,293.91,215.75,293.7,216,292.48Z"/><path class="cls-3" d="M221.28,276.94a1.07,1.07,0,0,1,1.59-.15c4.2,5.08,12.56,14.71,12.56,14.71s-9.47-8.75-14.35-13A1.07,1.07,0,0,1,221.28,276.94Z"/><path class="cls-2" d="M241.18,272.13c1.21.05,1.17,1,1.17,1-.76,6.34-1.95,18.65-1.95,18.65s-.17-12.5-.46-18.75C239.94,273.05,240,272.08,241.18,272.13Z"/><path class="cls-2" d="M237.61,252.35c.83,0,.87.62.87.62-.12,4.38-.14,12.84-.14,12.84s-.92-8.51-1.52-12.75C236.82,253.06,236.79,252.4,237.61,252.35Z"/><path class="cls-3" d="M253.15,280.17a.84.84,0,0,1,.39,1.18c-3.13,4.06-9,12.07-9,12.07s5-8.69,7.36-13.13A.84.84,0,0,1,253.15,280.17Z"/><path class="cls-3" d="M264.6,262.6a.74.74,0,0,1,.35,1.06c-2.82,3.68-8.12,10.91-8.12,10.91s4.52-7.86,6.65-11.86A.75.75,0,0,1,264.6,262.6Z"/><path class="cls-2" d="M266.68,298c0,1.15-.94,1.13-.94,1.13-6-.64-17.67-1.58-17.67-1.58s11.82-.34,17.73-.71C265.8,296.82,266.71,296.84,266.68,298Z"/><path class="cls-3" d="M261.29,312.44a1,1,0,0,1-1.37.5c-4.88-3.5-14.49-10-14.49-10s10.38,5.51,15.67,8.09A1,1,0,0,1,261.29,312.44Z"/><path class="cls-2" d="M226.57,319.29c-.82-.7-.27-1.35-.27-1.35,4-4,11.54-12,11.54-12s-6.7,8.84-9.9,13.38A.92.92,0,0,1,226.57,319.29Z"/><path class="cls-2" d="M214.17,334.12a.55.55,0,0,1-.16-.8c2.38-2.4,6.87-7.14,6.87-7.14s-4,5.26-5.9,8A.53.53,0,0,1,214.17,334.12Z"/><path class="cls-2" d="M232.27,258.48a.59.59,0,0,0,0,1.18A.59.59,0,0,0,232.27,258.48Z"/><path class="cls-2" d="M243,263.72a.59.59,0,0,0,0,1.18A.59.59,0,0,0,243,263.72Z"/><path class="cls-3" d="M257.09,261.52a.59.59,0,0,0,0,1.18A.59.59,0,0,0,257.09,261.52Z"/><path class="cls-3" d="M274.48,280.5a.59.59,0,0,0,0,1.18A.59.59,0,0,0,274.48,280.5Z"/><path class="cls-2" d="M258.23,276.57a.59.59,0,0,0,0,1.18A.59.59,0,0,0,258.23,276.57Z"/><path class="cls-2" d="M235.15,281.55a.59.59,0,0,0,0,1.18A.59.59,0,0,0,235.15,281.55Z"/><path class="cls-2" d="M221.26,269.49a.59.59,0,0,0,0,1.18A.59.59,0,0,0,221.26,269.49Z"/><path class="cls-3" d="M212.87,268.44a.59.59,0,0,0,0,1.18A.59.59,0,0,0,212.87,268.44Z"/><path class="cls-3" d="M207.36,291a.59.59,0,0,0,0,1.18A.59.59,0,0,0,207.36,291Z"/><path class="cls-2" d="M200,281.29a.59.59,0,0,0,0,1.18A.59.59,0,0,0,200,281.29Z"/><path class="cls-2" d="M200,301.48a.59.59,0,0,0,0,1.18A.59.59,0,0,0,200,301.48Z"/><path class="cls-2" d="M211.56,307a.59.59,0,0,0,0,1.18A.59.59,0,0,0,211.56,307Z"/><path class="cls-2" d="M222.57,317.47a.59.59,0,0,0,0,1.18A.59.59,0,0,0,222.57,317.47Z"/><path class="cls-2" d="M222,337.17a.59.59,0,0,0,0,1.18A.59.59,0,0,0,222,337.17Z"/><path class="cls-3" d="M239.35,339a.59.59,0,0,0,0,1.18A.59.59,0,0,0,239.35,339Z"/><path class="cls-2" d="M261.05,337.49a.48.48,0,0,0,0,.95A.48.48,0,0,0,261.05,337.49Z"/><path class="cls-3" d="M273.22,323.15a.59.59,0,0,0,0,1.18A.59.59,0,0,0,273.22,323.15Z"/><path class="cls-3" d="M278.68,301.21a.59.59,0,0,0,0,1.18A.59.59,0,0,0,278.68,301.21Z"/><path class="cls-2" d="M270.29,295.18a.59.59,0,0,0,0,1.18A.59.59,0,0,0,270.29,295.18Z"/><path class="cls-2" d="M264,317.4a.4.4,0,0,0,0,.79A.4.4,0,0,0,264,317.4Z"/><path class="cls-2" d="M221.78,288.83a.39.39,0,0,0,0,.78A.39.39,0,0,0,221.78,288.83Z"/><path class="cls-2" d="M237.84,294.48a.39.39,0,0,0,0,.78A.39.39,0,0,0,237.84,294.48Z"/><path class="cls-2" d="M247.69,300a.4.4,0,0,0,0,.79A.4.4,0,0,0,247.69,300Z"/><path class="cls-2" d="M236,303.53a.4.4,0,0,0,0,.79A.4.4,0,0,0,236,303.53Z"/><path class="cls-3" d="M215.23,326.06a.39.39,0,0,0,0,.78A.39.39,0,0,0,215.23,326.06Z"/><g class="cls-4"><path class="cls-5" d="M135.63,69.11a1.5,1.5,0,0,1-1.49,1.5,1.45,1.45,0,0,1-1.5-1.5,1.5,1.5,0,0,1,3,0Z"/><path class="cls-5" d="M109.1,76.34a.95.95,0,1,1-.95-1A.91.91,0,0,1,109.1,76.34Z"/><path class="cls-5" d="M86.64,56.13a.95.95,0,0,1-1.89,0,.92.92,0,0,1,1-1A1,1,0,0,1,86.64,56.13Z"/><path class="cls-5" d="M148.88,70.46a.95.95,0,1,1-.94-.94A1,1,0,0,1,148.88,70.46Z"/><path class="cls-5" d="M266.45,68.87a.95.95,0,0,1-1.89,0,.92.92,0,0,1,.95-1A1,1,0,0,1,266.45,68.87Z"/><path class="cls-5" d="M248,51.25a.95.95,0,1,1-.94-.94A.91.91,0,0,1,248,51.25Z"/><path class="cls-5" d="M238.42,115.15a.95.95,0,0,1-1.89,0,.91.91,0,0,1,.95-1A1,1,0,0,1,238.42,115.15Z"/><path class="cls-5" d="M245.22,119.87a.95.95,0,1,1-1.89,0,.95.95,0,0,1,1.89,0Z"/><path class="cls-5" d="M54.84,68.94a.91.91,0,0,1-1,.94,1,1,0,0,1-.94-.94.95.95,0,1,1,1.89,0Z"/><path class="cls-5" d="M284.07,108.21a.95.95,0,1,1-.95-.95A.91.91,0,0,1,284.07,108.21Z"/><path class="cls-5" d="M285,135a.95.95,0,1,1-.94-.94A.91.91,0,0,1,285,135Z"/><path class="cls-5" d="M285.56,153.71a.95.95,0,1,1-.95-1A.87.87,0,0,1,285.56,153.71Z"/><path class="cls-5" d="M210.76,135.6a.95.95,0,0,1-1.89,0,.92.92,0,0,1,.95-.95A.87.87,0,0,1,210.76,135.6Z"/><path class="cls-5" d="M125.46,108.74a.95.95,0,1,1-.95-.95A.91.91,0,0,1,125.46,108.74Z"/><path class="cls-5" d="M224.13,136.52a1.5,1.5,0,1,1-1.5-1.5A1.5,1.5,0,0,1,224.13,136.52Z"/><path class="cls-5" d="M283,44.41a1.5,1.5,0,1,1-1.5-1.49A1.5,1.5,0,0,1,283,44.41Z"/><path class="cls-5" d="M293.44,93.18a1.5,1.5,0,1,1-1.5-1.49A1.5,1.5,0,0,1,293.44,93.18Z"/><path class="cls-5" d="M146.23,159.92a1.5,1.5,0,1,1-1.5-1.5A1.45,1.45,0,0,1,146.23,159.92Z"/><path class="cls-5" d="M95.32,154.68a1.5,1.5,0,1,1-1.49-1.5A1.61,1.61,0,0,1,95.32,154.68Z"/><path class="cls-5" d="M66.5,52.2a1.6,1.6,0,0,1,.57.11,1.6,1.6,0,0,1,.81.81,1.6,1.6,0,0,1,.11.57,1.66,1.66,0,0,1-.11.58,1.6,1.6,0,0,1-.81.81,1.6,1.6,0,0,1-.57.11,1.66,1.66,0,0,1-.58-.11,1.6,1.6,0,0,1-.81-.81,1.66,1.66,0,0,1-.11-.58,1.6,1.6,0,0,1,.11-.57,1.6,1.6,0,0,1,.81-.81A1.66,1.66,0,0,1,66.5,52.2Z"/></g><g class="cls-6"><g class="cls-4"><path class="cls-5" d="M190.56,323a1.5,1.5,0,0,1,1.5-1.5,1.45,1.45,0,0,1,1.49,1.5,1.5,1.5,0,1,1-3,0Z"/><path class="cls-5" d="M217.1,315.81a.95.95,0,0,1,1.89,0,.95.95,0,1,1-1.89,0Z"/><path class="cls-5" d="M239.55,336a.95.95,0,1,1,.94.94A1,1,0,0,1,239.55,336Z"/><path class="cls-5" d="M177.31,321.69a.95.95,0,0,1,1.89,0,.91.91,0,0,1-.95.95A1,1,0,0,1,177.31,321.69Z"/><path class="cls-5" d="M59.74,323.29a.95.95,0,1,1,1.89,0,.9.9,0,0,1-.94.94A1,1,0,0,1,59.74,323.29Z"/><path class="cls-5" d="M78.19,340.9a.95.95,0,0,1,1.89,0,.95.95,0,1,1-1.89,0Z"/><path class="cls-5" d="M87.77,277a.95.95,0,1,1,.94.94A1,1,0,0,1,87.77,277Z"/><path class="cls-5" d="M81,272.28a.95.95,0,1,1,.94.94A.91.91,0,0,1,81,272.28Z"/><path class="cls-5" d="M271.35,323.21a.91.91,0,0,1,.95-.94,1,1,0,0,1,.94.94.95.95,0,1,1-1.89,0Z"/><path class="cls-5" d="M42.13,284a.95.95,0,1,1,.94.94A.91.91,0,0,1,42.13,284Z"/><path class="cls-5" d="M41.18,257.13a.95.95,0,1,1,1,.95A.91.91,0,0,1,41.18,257.13Z"/><path class="cls-5" d="M40.63,238.45a.95.95,0,1,1,1.89,0,.9.9,0,0,1-.94.94A.87.87,0,0,1,40.63,238.45Z"/><path class="cls-5" d="M115.43,256.56a.95.95,0,1,1,.94.94A.86.86,0,0,1,115.43,256.56Z"/><path class="cls-5" d="M200.74,283.42a.95.95,0,1,1,.94.94A.91.91,0,0,1,200.74,283.42Z"/><path class="cls-5" d="M102.06,255.63a1.5,1.5,0,1,1,1.5,1.5A1.5,1.5,0,0,1,102.06,255.63Z"/><path class="cls-5" d="M43.18,347.74a1.5,1.5,0,1,1,1.49,1.5A1.5,1.5,0,0,1,43.18,347.74Z"/><path class="cls-5" d="M32.76,299a1.5,1.5,0,1,1,1.49,1.5A1.5,1.5,0,0,1,32.76,299Z"/><path class="cls-5" d="M180,232.23a1.5,1.5,0,1,1,1.5,1.5A1.45,1.45,0,0,1,180,232.23Z"/><path class="cls-5" d="M230.87,237.48a1.5,1.5,0,1,1,1.5,1.49A1.61,1.61,0,0,1,230.87,237.48Z"/><path class="cls-5" d="M259.7,340a1.47,1.47,0,0,1-.58-.12,1.39,1.39,0,0,1-.48-.32,1.34,1.34,0,0,1-.32-.49,1.41,1.41,0,0,1,0-1.14,1.34,1.34,0,0,1,.32-.49,1.39,1.39,0,0,1,.48-.32,1.47,1.47,0,0,1,.58-.12,1.39,1.39,0,0,1,.57.12,1.43,1.43,0,0,1,.49.32,1.49,1.49,0,0,1,.32.49,1.53,1.53,0,0,1,0,1.14,1.49,1.49,0,0,1-.32.49,1.43,1.43,0,0,1-.49.32A1.39,1.39,0,0,1,259.7,340Z"/></g></g><path class="cls-7" d="M0,505s76.06-10,152.56-10S306,505,306,505c0,10.49-11.48,23.9-22,23.9l-262.31.25C11.22,529.15,0,515.49,0,505Z"/></g></g></svg>