<svg width="438" height="76" viewBox="0 0 438 76" fill="none" xmlns="http://www.w3.org/2000/svg">
<path d="M34.016 14.4486V3.10855H0V59.8019H34.016V48.4619H11.3387V37.1245H22.6773V25.7872H11.3387V14.4486H34.016Z" fill="#A23436"/>
<path d="M34.0161 25.7871V37.1244H45.3548V59.8018H56.6934V25.7871H34.0161Z" fill="#A23436"/>
<path d="M40.3481 11.2819C40.3481 15.7952 44.0081 19.4539 48.5228 19.4539C53.0361 19.4539 56.6935 15.7952 56.6935 11.2819C56.6935 6.76719 53.0361 3.10852 48.5228 3.10852C44.0081 3.10852 40.3481 6.76719 40.3481 11.2819Z" fill="#A23436"/>
<path d="M91.1553 3.1152L112.062 53.1432L133.046 3.1152H139.431V59.8005H134.642V35.1165L135.033 9.8112L113.931 59.8005H110.231L89.2073 10.0059L89.5979 34.9619V59.8005H84.8086V3.1152H91.1553Z" fill="#A23436"/>
<path d="M155.931 59.801H151.259V17.677H155.931V59.801ZM150.442 5.5103C150.442 4.63296 150.726 3.89163 151.299 3.28497C151.869 2.67963 152.647 2.37563 153.635 2.37563C154.619 2.37563 155.406 2.67963 155.989 3.28497C156.573 3.89163 156.866 4.63296 156.866 5.5103C156.866 6.38763 156.573 7.1223 155.989 7.71563C155.406 8.30896 154.619 8.60496 153.635 8.60496C152.647 8.60496 151.869 8.30896 151.299 7.71563C150.726 7.1223 150.442 6.38763 150.442 5.5103Z" fill="#A23436"/>
<path d="M172.226 17.6764L172.382 24.8777C173.963 22.2831 175.936 20.3044 178.299 18.9417C180.66 17.5791 183.267 16.8977 186.124 16.8977C190.64 16.8977 194.002 18.1698 196.207 20.7124C198.414 23.2564 199.531 27.0724 199.556 32.1591V59.8004H194.923V32.1204C194.898 28.3564 194.098 25.5537 192.528 23.7097C190.958 21.8684 188.447 20.9471 184.994 20.9471C182.114 20.9471 179.564 21.8484 177.346 23.6524C175.127 25.4564 173.483 27.8897 172.419 30.9524V59.8004H167.786V17.6764H172.226Z" fill="#A23436"/>
<path d="M213.629 39.1667C213.629 44.5387 214.705 48.7774 216.861 51.8774C219.014 54.98 222.05 56.5294 225.97 56.5294C231.708 56.5294 235.78 54 238.194 48.9387V29.1614C235.78 23.6854 231.733 20.9467 226.048 20.9467C222.129 20.9467 219.08 22.484 216.9 25.56C214.717 28.636 213.629 33.1707 213.629 39.1667ZM208.918 38.3494C208.918 31.8094 210.377 26.5987 213.298 22.7174C216.217 18.8374 220.181 16.8974 225.192 16.8974C230.877 16.8974 235.21 19.1427 238.194 23.6334V2.39559e-05H242.826V59.8014H238.468L238.272 54.1947C235.288 58.452 230.9 60.58 225.113 60.58C220.26 60.58 216.348 58.6267 213.377 54.72C210.402 50.8134 208.918 45.5387 208.918 38.8947V38.3494Z" fill="#A23436"/>
<path d="M279.124 49.0951C279.124 46.7858 278.198 44.9284 276.34 43.5271C274.484 42.1244 271.69 41.0298 267.95 40.2378C264.212 39.4458 261.312 38.5378 259.25 37.5111C257.187 36.4871 255.655 35.2338 254.655 33.7551C253.655 32.2751 253.155 30.4844 253.155 28.3818C253.155 25.0604 254.543 22.3164 257.322 20.1498C260.098 17.9818 263.655 16.8978 267.988 16.8978C272.687 16.8978 276.458 18.0604 279.299 20.3818C282.143 22.7058 283.562 25.7351 283.562 29.4724H278.89C278.89 27.0071 277.859 24.9564 275.796 23.3204C273.731 21.6858 271.13 20.8684 267.988 20.8684C264.927 20.8684 262.468 21.5498 260.611 22.9124C258.758 24.2751 257.827 26.0458 257.827 28.2271C257.827 30.3284 258.6 31.9578 260.146 33.1124C261.69 34.2671 264.504 35.3258 268.594 36.2858C272.682 37.2458 275.744 38.2711 277.78 39.3604C279.819 40.4524 281.33 41.7618 282.318 43.2924C283.304 44.8258 283.796 46.6804 283.796 48.8604C283.796 52.4164 282.362 55.2591 279.494 57.3871C276.627 59.5151 272.882 60.5791 268.263 60.5791C263.356 60.5791 259.379 59.3924 256.33 57.0164C253.28 54.6418 251.755 51.6378 251.755 48.0044H256.427C256.608 50.7298 257.758 52.8511 259.872 54.3711C261.986 55.8884 264.783 56.6471 268.263 56.6471C271.507 56.6471 274.127 55.9338 276.127 54.5071C278.124 53.0791 279.124 51.2751 279.124 49.0951Z" fill="#A23436"/>
<path d="M322.27 38.3489C322.27 32.9769 321.169 28.7329 318.963 25.6183C316.754 22.5049 313.679 20.9463 309.737 20.9463C306.879 20.9463 304.426 21.6343 302.377 23.0103C300.327 24.3863 298.757 26.3836 297.666 29.0049V49.2103C298.781 51.6249 300.377 53.4689 302.455 54.7396C304.53 56.0116 306.983 56.6476 309.811 56.6476C313.731 56.6476 316.789 55.0836 318.981 51.9556C321.174 48.8276 322.27 44.2929 322.27 38.3489ZM326.942 39.1663C326.942 45.7329 325.489 50.9436 322.582 54.7983C319.677 58.6529 315.783 60.5796 310.903 60.5796C305.139 60.5796 300.729 58.5543 297.666 54.5063V75.9956H293.033V17.6769H297.354L297.587 23.6329C300.625 19.1436 305.025 16.8969 310.786 16.8969C315.822 16.8969 319.773 18.8049 322.639 22.6209C325.51 26.4356 326.942 31.7303 326.942 38.5049V39.1663Z" fill="#A23436"/>
<path d="M348.017 56.4538C351.132 56.4538 353.916 55.7004 356.366 54.1938C358.82 52.6898 360.602 50.6778 361.72 48.1604V38.8951H353.389C348.744 38.9471 345.108 39.7964 342.489 41.4444C339.866 43.0924 338.556 45.3564 338.556 48.2378C338.556 50.6004 339.432 52.5604 341.184 54.1178C342.936 55.6751 345.212 56.4538 348.017 56.4538ZM362.656 59.8004C362.186 58.4764 361.889 56.5178 361.76 53.9218C360.124 56.0511 358.041 57.6924 355.509 58.8458C352.981 60.0018 350.301 60.5791 347.47 60.5791C343.424 60.5791 340.145 59.4511 337.64 57.1924C335.134 54.9338 333.884 52.0791 333.884 48.6271C333.884 44.5258 335.59 41.2831 339.004 38.8951C342.416 36.5071 347.173 35.3124 353.272 35.3124H361.72V30.5231C361.72 27.5124 360.793 25.1458 358.936 23.4191C357.08 21.6924 354.374 20.8298 350.82 20.8298C347.574 20.8298 344.886 21.6604 342.76 23.3204C340.632 24.9818 339.566 26.9818 339.566 29.3164L334.894 29.2778C334.894 25.9298 336.452 23.0298 339.566 20.5764C342.681 18.1231 346.509 16.8978 351.053 16.8978C355.752 16.8978 359.454 18.0724 362.168 20.4218C364.878 22.7711 366.274 26.0458 366.353 30.2511V50.1844C366.353 54.2591 366.782 57.3084 367.637 59.3338V59.8004H362.656Z" fill="#A23436"/>
<path d="M397.918 21.6471C396.934 21.4658 395.882 21.3738 394.765 21.3738C391.858 21.3738 389.4 22.1858 387.388 23.8084C385.377 25.4298 383.942 27.7858 383.085 30.8738V59.8004H378.452V17.6764H383.009L383.085 24.3724C385.552 19.3898 389.509 16.8964 394.96 16.8964C396.26 16.8964 397.282 17.0658 398.036 17.4044L397.918 21.6471Z" fill="#A23436"/>
<path d="M414.486 38.582L409.153 43.7207V59.8007H404.481V0.000664779H409.153V38.2713L413.552 33.522L429.672 17.6767H435.549L417.68 35.43L437.106 59.8007H431.538L414.486 38.582Z" fill="#A23436"/>
</svg>
